<svg xmlns="http://www.w3.org/2000/svg" viewBox="0 0 64 64" role="img" aria-label="OnFly Air">
  <rect width="64" height="64" fill="#0C0C0E"/>
  <circle cx="32" cy="28" r="16" fill="none" stroke="#3a3a3e" stroke-width="5"/>
  <path fill="#C9A227" d="M32 8c1.2 0 2.2.7 2.6 1.8l1.4 4.2 8.2 2.4c2.2.6 2.8 3.4 1 4.8l-5.8 4.4 1.8 8.4c.5 2.2-1.8 3.8-3.6 2.8L32 33.6l-5.6 3.2c-1.8 1-4.1-.6-3.6-2.8l1.8-8.4-5.8-4.4c-1.8-1.4-1.2-4.2 1-4.8l8.2-2.4 1.4-4.2C29.8 8.7 30.8 8 32 8z"/>
  <path fill="#C9A227" d="M31.2 36h1.6v22c0 .8-.7 1.4-1.4.7l-.8-.8c-.4-.4-.4-1 0-1.4L31.2 36z"/>
</svg>
